<svg xmlns="http://www.w3.org/2000/svg" xmlns:xlink="http://www.w3.org/1999/xlink" width="500" zoomAndPan="magnify" viewBox="0 0 375 374.999991" height="500" preserveAspectRatio="xMidYMid meet" version="1.0"><defs><clipPath id="eaa5055c5e"><path d="M 37.5 35.003906 L 337.5 35.003906 L 337.5 340.253906 L 37.5 340.253906 Z M 37.5 35.003906 " clip-rule="nonzero"/></clipPath></defs><g clip-path="url(#eaa5055c5e)"><path fill="#545766" d="M 127.027344 271.132812 C 124.6875 271.132812 122.371094 271.839844 120.382812 273.238281 L 78.421875 302.789062 L 88.46875 247.445312 C 89.132812 243.824219 88.019531 240.085938 85.492188 237.4375 C 67.996094 219.003906 60.550781 198.917969 60.550781 170.261719 C 60.550781 140.589844 73.574219 112.621094 97.238281 91.492188 C 121.304688 70.03125 153.339844 58.222656 187.5 58.222656 C 257.476562 58.25 314.425781 108.480469 314.425781 170.261719 C 314.425781 232.042969 257.5 282.300781 187.5 282.300781 C 164.023438 282.300781 147.382812 279.269531 131.800781 272.195312 C 130.289062 271.484375 128.660156 271.132812 127.027344 271.132812 M 62.039062 340.011719 C 64.355469 340.011719 66.695312 339.300781 68.683594 337.902344 L 128.421875 295.808594 C 145.347656 302.484375 163.457031 305.371094 187.476562 305.371094 C 270.21875 305.371094 337.5 244.773438 337.5 170.261719 C 337.5 95.75 270.21875 35.132812 187.5 35.132812 C 147.6875 35.132812 110.171875 49.019531 81.921875 74.265625 C 53.292969 99.820312 37.5 133.917969 37.5 170.261719 C 37.5 202.679688 45.964844 227.214844 64.78125 248.9375 L 50.691406 326.429688 C 49.863281 331.042969 51.875 335.703125 55.820312 338.234375 C 57.738281 339.417969 59.886719 340.011719 62.039062 340.011719 " fill-opacity="1" fill-rule="nonzero"/></g></svg>