<svg xmlns="http://www.w3.org/2000/svg" xmlns:xlink="http://www.w3.org/1999/xlink" width="500" zoomAndPan="magnify" viewBox="0 0 375 374.999991" height="500" preserveAspectRatio="xMidYMid meet" version="1.0"><defs><clipPath id="dcff5ccf22"><path d="M 43 66 L 332 66 L 332 312.339844 L 43 312.339844 Z M 43 66 " clip-rule="nonzero"/></clipPath></defs><g clip-path="url(#dcff5ccf22)"><path fill="#545766" d="M 187.5 312.507812 L 181.035156 307.753906 C 138.09375 275.277344 98.597656 239.046875 62.539062 199.070312 C 60.304688 196.664062 58.242188 194.121094 56.355469 191.4375 C 54.464844 188.75 52.765625 185.949219 51.257812 183.035156 C 49.75 180.121094 48.449219 177.113281 47.351562 174.023438 C 46.25 170.929688 45.367188 167.773438 44.699219 164.5625 C 44.03125 161.347656 43.582031 158.105469 43.355469 154.828125 C 43.125 151.554688 43.121094 148.28125 43.339844 145.003906 C 43.558594 141.730469 44 138.484375 44.660156 135.269531 C 45.320312 132.054688 46.195312 128.898438 47.285156 125.800781 C 48.515625 122.183594 49.972656 118.65625 51.660156 115.226562 C 53.347656 111.796875 55.25 108.492188 57.367188 105.308594 C 59.484375 102.128906 61.796875 99.097656 64.3125 96.214844 C 66.824219 93.332031 69.511719 90.628906 72.375 88.097656 C 75.242188 85.566406 78.257812 83.230469 81.425781 81.09375 C 84.59375 78.953125 87.890625 77.03125 91.308594 75.320312 C 94.726562 73.609375 98.242188 72.128906 101.855469 70.878906 C 105.46875 69.625 109.144531 68.613281 112.890625 67.839844 C 139.472656 62.757812 165.613281 71.597656 187.5 92.816406 C 209.332031 71.597656 235.472656 62.757812 262.054688 67.839844 C 265.800781 68.613281 269.476562 69.625 273.089844 70.878906 C 276.703125 72.128906 280.21875 73.609375 283.636719 75.320312 C 287.054688 77.03125 290.351562 78.953125 293.519531 81.09375 C 296.6875 83.230469 299.703125 85.566406 302.570312 88.097656 C 305.433594 90.628906 308.121094 93.332031 310.632812 96.214844 C 313.144531 99.097656 315.460938 102.128906 317.578125 105.308594 C 319.695312 108.492188 321.597656 111.796875 323.285156 115.226562 C 324.972656 118.65625 326.429688 122.183594 327.65625 125.800781 C 328.753906 128.898438 329.632812 132.054688 330.296875 135.269531 C 330.960938 138.484375 331.402344 141.730469 331.625 145.003906 C 331.84375 148.28125 331.84375 151.558594 331.617188 154.832031 C 331.390625 158.109375 330.941406 161.351562 330.273438 164.566406 C 329.605469 167.78125 328.71875 170.933594 327.621094 174.027344 C 326.519531 177.121094 325.214844 180.128906 323.707031 183.042969 C 322.195312 185.957031 320.492188 188.757812 318.601562 191.441406 C 316.710938 194.125 314.644531 196.667969 312.402344 199.070312 C 276.367188 239.097656 236.886719 275.378906 193.964844 307.921875 Z M 127.535156 88.558594 C 124.003906 88.5625 120.503906 88.894531 117.035156 89.554688 C 114.25 90.144531 111.511719 90.914062 108.828125 91.855469 C 106.140625 92.800781 103.527344 93.914062 100.980469 95.191406 C 98.4375 96.472656 95.988281 97.910156 93.628906 99.507812 C 91.273438 101.101562 89.027344 102.84375 86.894531 104.726562 C 84.761719 106.613281 82.753906 108.625 80.882812 110.769531 C 79.007812 112.914062 77.277344 115.167969 75.695312 117.53125 C 74.109375 119.898438 72.683594 122.355469 71.417969 124.90625 C 70.152344 127.453125 69.050781 130.074219 68.121094 132.765625 C 67.355469 134.945312 66.746094 137.164062 66.285156 139.429688 C 65.824219 141.695312 65.523438 143.976562 65.375 146.285156 C 65.230469 148.589844 65.242188 150.894531 65.414062 153.199219 C 65.585938 155.5 65.914062 157.78125 66.402344 160.042969 C 66.886719 162.300781 67.523438 164.515625 68.3125 166.6875 C 69.105469 168.855469 70.039062 170.964844 71.117188 173.007812 C 72.199219 175.046875 73.414062 177.007812 74.761719 178.882812 C 76.109375 180.757812 77.582031 182.53125 79.175781 184.207031 C 112.386719 220.945312 148.496094 254.578125 187.5 285.101562 C 226.585938 254.59375 262.785156 220.980469 296.101562 184.261719 C 297.679688 182.578125 299.140625 180.792969 300.472656 178.910156 C 301.808594 177.023438 303.011719 175.058594 304.074219 173.011719 C 305.140625 170.960938 306.0625 168.847656 306.835938 166.675781 C 307.613281 164.5 308.234375 162.28125 308.707031 160.019531 C 309.175781 157.757812 309.492188 155.476562 309.648438 153.171875 C 309.804688 150.871094 309.804688 148.566406 309.644531 146.261719 C 309.484375 143.957031 309.167969 141.675781 308.695312 139.417969 C 308.222656 137.15625 307.597656 134.9375 306.824219 132.765625 C 305.898438 130.066406 304.804688 127.4375 303.542969 124.878906 C 302.28125 122.324219 300.855469 119.859375 299.277344 117.484375 C 297.695312 115.109375 295.96875 112.847656 294.09375 110.699219 C 292.222656 108.546875 290.21875 106.523438 288.085938 104.632812 C 285.949219 102.738281 283.703125 100.992188 281.34375 99.390625 C 278.984375 97.785156 276.53125 96.34375 273.984375 95.054688 C 271.4375 93.769531 268.820312 92.652344 266.128906 91.703125 C 263.441406 90.757812 260.699219 89.984375 257.910156 89.390625 C 242.214844 86.460938 219.003906 88.558594 195.84375 116.1875 L 187.5 125.855469 L 179.097656 116.1875 C 160.695312 94.085938 142.179688 88.558594 127.535156 88.558594 Z M 127.535156 88.558594 " fill-opacity="1" fill-rule="nonzero"/></g></svg>