<svg xmlns="http://www.w3.org/2000/svg" xmlns:xlink="http://www.w3.org/1999/xlink" width="500" zoomAndPan="magnify" viewBox="0 0 375 374.999991" height="500" preserveAspectRatio="xMidYMid meet" version="1.0"><defs><clipPath id="775b0c78ce"><path d="M 37.5 157.226562 L 337.5 157.226562 L 337.5 217.976562 L 37.5 217.976562 Z M 37.5 157.226562 " clip-rule="nonzero"/></clipPath></defs><g clip-path="url(#775b0c78ce)"><path fill="#000000" d="M 97.691406 187.589844 C 97.691406 204.269531 84.21875 217.792969 67.597656 217.792969 C 50.976562 217.792969 37.5 204.269531 37.5 187.589844 C 37.5 170.910156 50.976562 157.390625 67.597656 157.390625 C 84.21875 157.390625 97.691406 170.910156 97.691406 187.589844 Z M 187.566406 157.390625 C 170.945312 157.390625 157.46875 170.910156 157.46875 187.589844 C 157.46875 204.269531 170.945312 217.792969 187.566406 217.792969 C 204.1875 217.792969 217.660156 204.269531 217.660156 187.589844 C 217.660156 170.910156 204.1875 157.390625 187.566406 157.390625 Z M 307.40625 157.390625 C 290.785156 157.390625 277.308594 170.910156 277.308594 187.589844 C 277.308594 204.269531 290.785156 217.792969 307.40625 217.792969 C 324.027344 217.792969 337.5 204.269531 337.5 187.589844 C 337.5 170.910156 324.027344 157.390625 307.40625 157.390625 Z M 307.40625 157.390625 " fill-opacity="1" fill-rule="nonzero"/></g></svg>