<svg xmlns="http://www.w3.org/2000/svg" xmlns:xlink="http://www.w3.org/1999/xlink" width="500" zoomAndPan="magnify" viewBox="0 0 375 374.999991" height="500" preserveAspectRatio="xMidYMid meet" version="1.0"><defs><clipPath id="2de233fb97"><path d="M 37.5 76 L 173 76 L 173 239 L 37.5 239 Z M 37.5 76 " clip-rule="nonzero"/></clipPath><clipPath id="d1a22e3933"><path d="M 37.613281 143.804688 C 37.925781 143.324219 38.371094 143.527344 38.75 143.632812 C 48.144531 146.285156 57.675781 145.871094 67.210938 144.835938 C 74.582031 144.035156 81.9375 143.078125 89.398438 142.46875 C 85.421875 141.59375 81.449219 140.738281 77.484375 139.832031 C 71.207031 138.382812 64.976562 136.800781 59.167969 133.902344 C 49.996094 129.320312 45.671875 121.277344 43.101562 111.820312 C 43.871094 111.8125 44.140625 112.285156 44.496094 112.589844 C 51.296875 118.609375 59.257812 122.214844 68.105469 123.953125 C 75.789062 125.46875 83.570312 126.488281 91.226562 128.804688 C 90.917969 127.816406 90.140625 127.710938 89.578125 127.371094 C 81.71875 122.597656 73.71875 118.046875 66.261719 112.644531 C 65.113281 111.8125 64.019531 110.914062 62.886719 110.066406 C 54.0625 103.410156 50.417969 94.429688 51.023438 83.554688 C 51.144531 81.363281 51.289062 79.175781 51.421875 76.875 C 51.617188 77.023438 51.851562 77.113281 51.878906 77.242188 C 53.910156 85.847656 59.460938 91.957031 66.140625 97.226562 C 72.4375 102.203125 79.359375 106.234375 86.519531 109.804688 C 104.722656 118.859375 121.476562 130.417969 139.359375 140.03125 C 146.40625 143.824219 153.011719 148.367188 159.101562 153.59375 C 163.097656 157.019531 166.730469 160.773438 169.421875 165.347656 C 172.527344 170.621094 173.554688 176.175781 172.226562 182.269531 C 170.054688 192.226562 169.125 202.40625 166.90625 212.359375 C 164.941406 221.175781 161.6875 229.390625 155.605469 236.261719 C 155.058594 236.878906 154.609375 237.621094 153.597656 238.078125 C 154.460938 234.929688 155.375 231.976562 155.859375 228.910156 C 156.964844 222.011719 155.507812 215.558594 152.683594 209.308594 C 150.734375 205 148.679688 200.710938 148.027344 195.945312 C 147.605469 192.863281 147.757812 189.796875 148.394531 186.132812 C 145.941406 188.417969 143.925781 190.269531 141.9375 192.152344 C 136.066406 197.703125 130.152344 203.207031 122.878906 206.933594 C 116.6875 210.101562 110.261719 211.519531 103.433594 209.097656 C 102.988281 208.941406 102.5625 208.746094 102.113281 208.410156 C 108.71875 208.445312 113.164062 204.691406 117.160156 200.148438 C 120.203125 196.679688 122.664062 192.78125 125.203125 188.949219 C 126.839844 186.476562 128.519531 184.03125 130.273438 181.4375 C 125.855469 182.496094 121.695312 184.011719 117.519531 185.496094 C 111.058594 187.789062 104.691406 190.402344 97.855469 191.421875 C 91.878906 192.316406 86.058594 191.835938 80.511719 189.03125 C 86.726562 188.6875 91.4375 185.21875 96.121094 181.730469 C 99.734375 179.039062 103.335938 176.328125 108.082031 174.355469 C 103.199219 173.929688 99 174.851562 94.789062 175.332031 C 86.617188 176.253906 78.457031 177.257812 70.242188 175.929688 C 64.019531 174.925781 58.335938 172.585938 53.101562 168.855469 C 60.839844 169.625 66.925781 165.527344 73.300781 162.308594 C 76.457031 160.714844 79.71875 159.410156 83.128906 158.148438 C 77.910156 157.859375 72.691406 157.574219 67.472656 157.265625 C 62.945312 156.996094 58.460938 156.425781 54.078125 155.175781 C 47.285156 153.242188 41.894531 149.335938 37.640625 143.765625 C 37.648438 143.75 37.613281 143.804688 37.613281 143.804688 Z M 37.613281 143.804688 " clip-rule="nonzero"/></clipPath><clipPath id="b9ab773ccd"><path d="M 208 76 L 337.5 76 L 337.5 239 L 208 239 Z M 208 76 " clip-rule="nonzero"/></clipPath><clipPath id="580b771a32"><path d="M 337.351562 143.625 C 333.144531 149.941406 327.101562 153.570312 319.910156 155.488281 C 314.054688 157.054688 308.027344 157.25 302.023438 157.59375 C 298.769531 157.78125 295.523438 157.941406 292.140625 158.121094 C 292.289062 158.34375 292.359375 158.578125 292.476562 158.605469 C 297.597656 159.917969 302.1875 162.453125 306.820312 164.875 C 311.515625 167.324219 316.320312 169.332031 321.808594 168.660156 C 322.003906 169.558594 321.230469 169.597656 320.832031 169.84375 C 312.667969 175.046875 303.664062 176.898438 294.089844 176.523438 C 285.511719 176.183594 277.0625 174.679688 268.523438 173.988281 C 267.820312 173.929688 267.121094 173.867188 266.359375 173.9375 C 272.574219 176.261719 277.394531 180.71875 282.738281 184.371094 C 286.316406 186.820312 290.117188 188.726562 294.613281 188.996094 C 291.804688 190.578125 288.789062 191.339844 285.648438 191.648438 C 279.304688 192.285156 273.269531 190.863281 267.316406 188.890625 C 260.742188 186.714844 254.324219 184.0625 247.660156 182.144531 C 246.910156 181.925781 246.191406 181.605469 245.214844 181.941406 C 250.117188 188.523438 253.820312 195.882812 259.550781 201.804688 C 263.304688 205.679688 267.558594 208.535156 273.890625 208.167969 C 266.726562 211.382812 260.277344 210.566406 253.917969 207.695312 C 248.445312 205.222656 243.707031 201.632812 239.261719 197.652344 C 235.941406 194.675781 232.730469 191.574219 229.449219 188.554688 C 228.691406 187.855469 228.046875 186.980469 226.824219 186.597656 C 228.285156 194.085938 225.609375 200.464844 221.964844 206.601562 C 219.582031 210.613281 216.972656 214.496094 215.082031 218.78125 C 212.5625 224.503906 212.054688 230.371094 213.847656 236.390625 C 214.027344 236.996094 214.296875 237.574219 214.011719 238.21875 C 208.011719 228.480469 206.851562 218.242188 210.503906 207.359375 C 212.464844 201.519531 214.039062 195.546875 213.664062 189.28125 C 213.5625 187.449219 213.441406 185.59375 213.035156 183.808594 C 211.363281 176.363281 212.796875 169.476562 216.605469 163 C 221.367188 154.917969 228.0625 148.601562 235.503906 143.121094 C 252.324219 130.730469 269.695312 119.203125 288.460938 109.886719 C 295.621094 106.332031 302.53125 102.292969 308.851562 97.328125 C 314.601562 92.816406 319.589844 87.675781 322.214844 80.652344 C 322.648438 79.492188 322.984375 78.289062 323.441406 76.890625 C 326.457031 90.269531 322.585938 101.609375 312.273438 110.035156 C 307.816406 113.671875 302.996094 116.765625 298.117188 119.765625 C 293.3125 122.726562 288.453125 125.605469 283.511719 128.578125 C 283.730469 128.640625 283.902344 128.757812 284.027344 128.722656 C 291.644531 126.457031 299.511719 125.410156 307.277344 123.878906 C 316.363281 122.089844 324.441406 118.25 331.316406 112 C 331.515625 111.820312 331.765625 111.683594 332.042969 111.488281 C 329.125 124.464844 321.597656 133.015625 308.769531 136.855469 C 301.117188 139.148438 293.304688 140.730469 285.519531 142.597656 C 290.328125 142.980469 295.125 143.347656 299.902344 143.910156 C 306.371094 144.65625 312.839844 145.484375 319.355469 145.601562 C 324.972656 145.707031 330.527344 145.210938 335.964844 143.722656 C 336.414062 143.59375 336.894531 143.308594 337.378906 143.644531 Z M 337.351562 143.625 " clip-rule="nonzero"/></clipPath><clipPath id="cbf6d357a2"><path d="M 149 105 L 223 105 L 223 318.339844 L 149 318.339844 Z M 149 105 " clip-rule="nonzero"/></clipPath><clipPath id="27df59b068"><path d="M 189.398438 318.3125 C 175.265625 302.074219 167.339844 283.433594 165.601562 262.144531 C 164.207031 245.027344 166.671875 228.273438 170.136719 211.59375 C 173.128906 197.195312 177.09375 183.011719 179.425781 168.472656 C 180.910156 159.214844 181.773438 149.925781 179.695312 140.625 C 178.78125 136.519531 177.152344 132.710938 174.957031 129.113281 C 174.050781 127.628906 173.082031 127.246094 171.351562 127.554688 C 163.949219 128.863281 157.144531 127.417969 151.152344 122.734375 C 150.621094 122.320312 149.929688 122 149.691406 121.082031 C 159.355469 122.972656 167.683594 119.605469 175.683594 114.855469 C 178.71875 113.046875 181.78125 111.265625 184.875 109.554688 C 188.625 107.488281 192.515625 106.574219 196.910156 107.398438 C 201.65625 108.289062 206.347656 107.089844 210.964844 105.988281 C 214.683594 105.09375 218.125 105.425781 221.246094 107.757812 C 221.859375 108.214844 222.550781 108.625 222.878906 109.53125 C 221.351562 109.023438 219.902344 109.128906 218.546875 109.804688 C 212.894531 112.644531 207.5625 115.957031 203.160156 120.582031 C 197.171875 126.871094 196.371094 134.457031 197.75 142.558594 C 199.082031 150.40625 202.210938 157.730469 204.542969 165.285156 C 207.171875 173.800781 208.882812 182.40625 207.796875 191.402344 C 206.894531 198.910156 203.882812 205.671875 200.726562 212.402344 C 195.957031 222.574219 190.714844 232.53125 186.546875 242.988281 C 176.898438 267.21875 178.546875 291.132812 188.382812 314.847656 C 188.757812 315.761719 189.125 316.675781 189.480469 317.597656 C 189.523438 317.71875 189.449219 317.875 189.398438 318.3125 Z M 189.398438 318.3125 " clip-rule="nonzero"/></clipPath><clipPath id="e1b7ea6711"><path d="M 143 63 L 237 63 L 237 150 L 143 150 Z M 143 63 " clip-rule="nonzero"/></clipPath><clipPath id="efeb8e22b1"><path d="M 228.675781 101.429688 C 235.167969 117.800781 232.613281 135.511719 223.398438 149.050781 C 236.242188 135.070312 240.738281 114.449219 233.273438 95.628906 C 222.863281 69.402344 193.160156 56.574219 166.925781 66.980469 C 157.066406 70.894531 149.097656 77.535156 143.542969 85.6875 C 148.589844 80.195312 154.925781 75.71875 162.324219 72.789062 C 188.566406 62.378906 218.269531 75.203125 228.675781 101.429688 Z M 228.675781 101.429688 " clip-rule="nonzero"/></clipPath><clipPath id="d0f5806908"><path d="M 140 74 L 220 74 L 220 147 L 140 147 Z M 140 74 " clip-rule="nonzero"/></clipPath><clipPath id="c93eb912c9"><path d="M 181.71875 80.226562 C 196.46875 78.386719 210.398438 84.226562 219.5 94.617188 C 210.792969 81.167969 194.914062 73.125 177.957031 75.238281 C 154.332031 78.179688 137.558594 99.714844 140.507812 123.332031 C 141.609375 132.214844 145.351562 140.121094 150.832031 146.382812 C 147.410156 141.097656 145.101562 134.980469 144.269531 128.316406 C 141.324219 104.699219 158.09375 83.164062 181.71875 80.226562 Z M 181.71875 80.226562 " clip-rule="nonzero"/></clipPath></defs><g clip-path="url(#2de233fb97)"><g clip-path="url(#d1a22e3933)"><path fill="#515050" d="M 37.613281 76.875 L 37.613281 238.078125 L 173.554688 238.078125 L 173.554688 76.875 Z M 37.613281 76.875 " fill-opacity="1" fill-rule="nonzero"/></g></g><g clip-path="url(#b9ab773ccd)"><g clip-path="url(#580b771a32)"><path fill="#515050" d="M 206.851562 76.890625 L 206.851562 238.21875 L 337.378906 238.21875 L 337.378906 76.890625 Z M 206.851562 76.890625 " fill-opacity="1" fill-rule="nonzero"/></g></g><g clip-path="url(#cbf6d357a2)"><g clip-path="url(#27df59b068)"><path fill="#515050" d="M 149.691406 105.09375 L 149.691406 318.3125 L 222.878906 318.3125 L 222.878906 105.09375 Z M 149.691406 105.09375 " fill-opacity="1" fill-rule="nonzero"/></g></g><g clip-path="url(#e1b7ea6711)"><g clip-path="url(#efeb8e22b1)"><path fill="#515050" d="M 143.542969 56.589844 L 143.542969 149.050781 L 240.738281 149.050781 L 240.738281 56.589844 Z M 143.542969 56.589844 " fill-opacity="1" fill-rule="nonzero"/></g></g><g clip-path="url(#d0f5806908)"><g clip-path="url(#c93eb912c9)"><path fill="#515050" d="M 137.558594 73.125 L 137.558594 146.382812 L 219.5 146.382812 L 219.5 73.125 Z M 137.558594 73.125 " fill-opacity="1" fill-rule="nonzero"/></g></g></svg>